<svg xmlns="http://www.w3.org/2000/svg" viewBox="0 0 260 68.08">
  <g fill="#4A4A4A">
    <g>
      <path d="M23.774 20.964a7.1 7.1 0 01-2.81 6.052c-1.729 1.513-4.755 2.377-8.429 2.377-5.4 0-9.726 0-12.535.216a7.392 7.392 0 01.216-2.377 2.793 2.793 0 001.729-.432 1.985 1.985 0 00.865-1.3 8.906 8.906 0 00.216-2.594V6.484a6.721 6.721 0 00-.216-2.378c.216-.648 0-.865-.432-1.081a4.316 4.316 0 00-1.946-.432c0-.648-.216-1.296-.216-2.377C1.3.216 2.81.432 4.755.432h7.132c3.242 0 5.619.432 7.348 1.513 1.729.648 2.594 2.377 2.594 4.755a6.563 6.563 0 01-1.729 4.538 7.7 7.7 0 01-4.539 2.378c5.403.216 8.213 2.809 8.213 7.348zM14.7 3.89a7.116 7.116 0 00-4.106-1.3 6.667 6.667 0 00-1.945.216v10.378h1.3c4.106 0 6.268-1.729 6.268-5.187A4.28 4.28 0 0014.7 3.89zm1.726 21.826a6.344 6.344 0 001.512-4.1c0-4.106-2.81-6.268-8.213-6.268h-1.08v7.564a6.207 6.207 0 00.432 2.594c.216.648.648 1.081 1.081 1.081s1.3.216 2.161.216a4.163 4.163 0 004.107-1.087z"/>
      <path d="M57.705 22.693a28.347 28.347 0 00-1.3 6.7h-9.722c-5.619 0-9.51 0-11.671.216a7.392 7.392 0 01.216-2.377 3.348 3.348 0 001.729-.432 1.985 1.985 0 00.865-1.3 9.752 9.752 0 00.216-2.81V6.484a6.721 6.721 0 00-.216-2.378 1.522 1.522 0 00-.865-1.081 4.072 4.072 0 00-1.729-.432 6.721 6.721 0 01-.216-2.377c1.945 0 4.755.216 8.429.216 4.539 0 8.645 0 11.887-.216.216 3.242.648 5.619.865 7.132a4.609 4.609 0 01-2.594.648 5.479 5.479 0 00-1.729-3.89c-.865-.865-2.594-1.513-4.971-1.513h-3.458v11.239h1.945a6.45 6.45 0 003.458-.648c.648-.432.865-1.3 1.081-2.594a8.061 8.061 0 012.594-.432c0 1.3-.216 3.026-.216 4.755a33.542 33.542 0 00.216 4.971 6.721 6.721 0 01-2.377-.216c-.216-1.3-.432-2.377-1.081-2.81a6.45 6.45 0 00-3.458-.648h-2.162v6.916a8.165 8.165 0 00.216 2.594 2.213 2.213 0 001.081 1.3 5.783 5.783 0 002.377.432h.432a9.03 9.03 0 003.89-.648 5.885 5.885 0 002.161-1.729 11.427 11.427 0 001.514-3.246 3.445 3.445 0 012.593.864z"/>
      <path d="M84.073 26.583a5.488 5.488 0 002.161-1.729 11.294 11.294 0 001.513-3.238 7.213 7.213 0 012.594 1.081 24.487 24.487 0 00-1.3 6.7h-9.074c-5.619 0-9.51 0-11.671.216a7.393 7.393 0 01.216-2.377 2.793 2.793 0 001.729-.432 1.985 1.985 0 00.865-1.3 8.907 8.907 0 00.216-2.594V6.484a6.722 6.722 0 00-.216-2.378 1.522 1.522 0 00-.865-1.081 4.072 4.072 0 00-1.729-.432 6.721 6.721 0 01-.216-2.377c1.945 0 3.89.216 5.835.216a48.9 48.9 0 005.836-.216 7.393 7.393 0 01-.216 2.377 3.348 3.348 0 00-1.729.432 2.158 2.158 0 00-.865 1.081 7.393 7.393 0 00-.216 2.377v16.21a8.165 8.165 0 00.216 2.594 2.213 2.213 0 001.081 1.3 5.784 5.784 0 002.377.432h.432a6.869 6.869 0 003.026-.436z"/>
      <path d="M116.06 26.583a5.488 5.488 0 002.161-1.729 23.215 23.215 0 001.513-3.238 7.213 7.213 0 012.594 1.081 24.487 24.487 0 00-1.3 6.7h-9.074c-5.619 0-9.51 0-11.671.216a7.392 7.392 0 01.216-2.377 2.793 2.793 0 001.729-.432 1.985 1.985 0 00.865-1.3 8.906 8.906 0 00.216-2.594V6.484a6.721 6.721 0 00-.216-2.378 1.521 1.521 0 00-.865-1.081 4.072 4.072 0 00-1.729-.432 6.721 6.721 0 01-.216-2.377c1.945 0 3.89.216 5.835.216a48.9 48.9 0 005.836-.216 7.393 7.393 0 01-.216 2.377 3.348 3.348 0 00-1.729.432 2.158 2.158 0 00-.865 1.081 7.393 7.393 0 00-.216 2.377v16.21a8.165 8.165 0 00.216 2.594 3.177 3.177 0 001.081 1.3 5.784 5.784 0 002.377.432 7.919 7.919 0 003.458-.436z"/>
      <path d="M154.746 22.693a28.348 28.348 0 00-1.3 6.7h-9.722c-5.619 0-9.51 0-11.671.216a7.393 7.393 0 01.216-2.377 3.348 3.348 0 001.729-.432 1.985 1.985 0 00.865-1.3 9.752 9.752 0 00.216-2.81V6.484a6.721 6.721 0 00-.216-2.377 1.521 1.521 0 00-.865-1.081 4.072 4.072 0 00-1.729-.432 6.672 6.672 0 01-.432-2.378c1.945 0 4.755.216 8.429.216 4.539 0 8.645 0 11.887-.216.216 3.242.648 5.619.864 7.132a4.609 4.609 0 01-2.594.648 5.479 5.479 0 00-1.729-3.89c-.864-.865-2.594-1.513-4.971-1.513h-3.457v11.239h1.945a6.45 6.45 0 003.458-.648c.648-.432.865-1.3 1.081-2.594a8.061 8.061 0 012.593-.432c0 1.3-.216 3.026-.216 4.755a33.542 33.542 0 00.216 4.971 6.721 6.721 0 01-2.377-.216c-.216-1.3-.432-2.377-1.081-2.81a6.45 6.45 0 00-3.458-.648h-1.945v6.916a8.165 8.165 0 00.216 2.594 2.213 2.213 0 001.081 1.3 5.784 5.784 0 002.377.432h.432a9.03 9.03 0 003.89-.648 5.885 5.885 0 002.159-1.733 11.427 11.427 0 001.513-3.242 3.445 3.445 0 012.596.864z"/>
      <path d="M191.272.216a8.865 8.865 0 01-.216 2.377 3.147 3.147 0 00-1.945 1.3 25.082 25.082 0 00-1.729 3.455c-3.458 8.645-6.268 15.993-8.861 22.045a7.392 7.392 0 01-2.377.216c-3.242-8.429-6.052-15.993-8.862-22.261a24.325 24.325 0 00-1.513-3.242 12.806 12.806 0 00-.865-1.3 1.827 1.827 0 00-1.3-.432A7.393 7.393 0 01163.392 0c1.3 0 3.026.216 5.619.216A52.667 52.667 0 00174.847 0a8.866 8.866 0 01-.216 2.377 4.316 4.316 0 00-1.945.432 1.189 1.189 0 00-.648 1.081 8.139 8.139 0 00.865 3.026c2.161 5.4 4.106 10.374 5.835 15.345 2.377-5.619 4.539-10.806 6.052-15.129a5.067 5.067 0 00.432-2.377 1.939 1.939 0 00-2.161-2.161 7.393 7.393 0 01-.218-2.378c1.081 0 2.594.216 3.89.216 1.946 0 3.459-.216 4.539-.216z"/>
      <path d="M223.258 23.774a7.652 7.652 0 01-1.945 3.458c-1.513 1.513-3.89 2.377-7.132 2.377a18.44 18.44 0 01-6.484-1.081 5.686 5.686 0 01-3.242-3.458 12.948 12.948 0 01-1.081-5.619V6.484a6.721 6.721 0 00-.216-2.377 4.724 4.724 0 00-.648-1.081 2.793 2.793 0 00-1.729-.432 7.393 7.393 0 01-.216-2.378c1.081 0 2.81.216 5.187.216a43.754 43.754 0 006.052-.216 8.1 8.1 0 01-.216 2.377 4.316 4.316 0 00-1.945.432 2.158 2.158 0 00-.865 1.081 7.457 7.457 0 00-.213 2.594v12.1a10.784 10.784 0 001.513 6.268c1.081 1.513 2.81 2.161 5.187 2.161a9.192 9.192 0 002.377-.432 3.147 3.147 0 001.945-1.3 4.93 4.93 0 001.3-2.594 26.245 26.245 0 00.432-4.971V8a12.444 12.444 0 00-.216-3.242 4.344 4.344 0 00-.865-1.729 2.642 2.642 0 00-1.945-.648A8.865 8.865 0 01218.071 0c1.081 0 2.377.216 4.323.216A22.3 22.3 0 00226.5 0a8.866 8.866 0 01-.216 2.377 1.683 1.683 0 00-1.513.648 3.483 3.483 0 00-.865 1.513 12.444 12.444 0 00-.216 3.242v9.726a17.621 17.621 0 01-.432 6.268z"/>
      <path d="M260 22.693a28.344 28.344 0 00-1.3 6.7h-9.726c-5.619 0-9.51 0-11.671.216a7.393 7.393 0 01.216-2.377 3.348 3.348 0 001.729-.432 1.985 1.985 0 00.865-1.3 9.752 9.752 0 00.216-2.81V6.484a6.721 6.721 0 00-.216-2.377 1.521 1.521 0 00-.865-1.081 4.072 4.072 0 00-1.729-.432 6.721 6.721 0 01-.212-2.378c1.945 0 4.755.216 8.429.216 4.539 0 8.645 0 11.887-.216.216 3.242.648 5.619.865 7.132a4.609 4.609 0 01-2.594.648 5.479 5.479 0 00-1.729-3.89 7.554 7.554 0 00-4.971-1.513h-3.458v11.239h1.945a6.45 6.45 0 003.458-.648c.648-.432.865-1.3 1.081-2.594a8.061 8.061 0 012.594-.432c0 1.3-.216 3.026-.216 4.755a33.542 33.542 0 00.216 4.971 6.721 6.721 0 01-2.377-.216c-.216-1.3-.432-2.377-1.081-2.81a6.45 6.45 0 00-3.458-.648h-1.945v6.916a8.165 8.165 0 00.216 2.594 3.177 3.177 0 001.081 1.3 5.783 5.783 0 002.377.432h.432a9.03 9.03 0 003.89-.648 5.885 5.885 0 002.161-1.729 11.427 11.427 0 001.513-3.242 2.693 2.693 0 012.377.86z"/>
    </g>
    <g>
      <path d="M80.396 67.647h-1.3V65.27a7.055 7.055 0 01-5.4 2.81c-2.594 0-5.4-1.3-5.4-4.971 0-3.458 2.81-5.187 6.052-5.187a9.558 9.558 0 014.755 1.3v-2.384c0-3.026-1.3-4.323-4.106-4.323a7.521 7.521 0 00-4.539 1.3l-.433-1.077a12.215 12.215 0 015.187-1.3c3.458 0 5.4 1.513 5.4 5.187v11.022zm-1.3-3.674v-3.674a9.558 9.558 0 00-4.755-1.3c-2.594 0-4.755 1.3-4.755 4.106s1.945 3.89 4.323 3.89 3.897-1.293 5.193-3.022z"/>
      <path d="M97.473 59.222v.648H86.018c.216 4.323 2.161 6.916 5.187 6.916a6.985 6.985 0 004.755-1.513l.648 1.081a9.633 9.633 0 01-5.619 1.729c-3.242 0-6.484-2.594-6.484-8.429 0-5.187 2.81-8.429 6.484-8.429 4.106-.003 6.484 3.023 6.484 7.997zm-1.3-.216c-.216-4.106-1.945-6.484-5.187-6.484-2.81 0-4.971 2.161-5.187 6.484z"/>
      <path d="M111.089 63.757c0 2.81-2.377 4.323-5.187 4.323a7.362 7.362 0 01-5.187-1.945l.648-1.081a6.564 6.564 0 004.539 1.729c2.377 0 3.89-1.081 3.89-3.026 0-1.729-.865-2.594-4.106-3.89-3.242-1.513-4.539-2.377-4.539-4.755 0-2.161 1.945-3.89 4.755-3.89a8 8 0 014.971 1.513l-.865 1.081a6.344 6.344 0 00-4.106-1.513c-2.161 0-3.242 1.081-3.242 2.594 0 1.729.865 2.377 3.89 3.674 2.81 1.512 4.539 2.593 4.539 5.186z"/>
      <path d="M121.464 66.134v1.3a5.983 5.983 0 01-2.81.648c-1.729 0-2.81-1.081-2.81-3.026v-12.1h-2.161V51.87h2.161v-5.4l1.3-.865v6.268h4.323v1.081h-4.326v11.883c0 1.513.648 2.161 1.945 2.161a10.535 10.535 0 002.378-.864z"/>
      <path d="M138.105 67.647h-1.3v-9.726c0-3.89-1.729-5.619-4.539-5.619-2.377 0-4.755 1.513-4.755 5.619v9.726h-1.293V46.035l1.3-.865v9.077c.865-1.945 2.594-3.026 5.187-3.026 3.458 0 5.619 1.945 5.619 6.484v9.942z"/>
      <path d="M155.179 59.222v.648h-11.455c.216 4.323 2.161 6.916 5.187 6.916a6.985 6.985 0 004.755-1.513l.648 1.081a9.633 9.633 0 01-5.619 1.729c-3.242 0-6.484-2.594-6.484-8.429 0-5.187 2.81-8.429 6.484-8.429 3.89-.003 6.484 3.023 6.484 7.997zm-1.3-.216c-.216-4.106-1.945-6.484-5.187-6.484-2.81 0-4.971 2.161-5.187 6.484z"/>
      <path d="M165.553 66.134v1.3a5.983 5.983 0 01-2.81.648c-1.729 0-2.81-1.081-2.81-3.026v-12.1h-2.161V51.87h2.161v-5.4l1.3-.865v6.268h4.323v1.081h-4.326v11.883c0 1.513.648 2.161 1.945 2.161a7.742 7.742 0 002.378-.864z"/>
      <path d="M171.82 47.116c0 .432-.432 1.081-.865 1.081a1.081 1.081 0 010-2.161.989.989 0 01.865 1.08zm-.216 20.532h-1.3V51.435h1.3z"/>
      <path d="M187.814 66.135a6.511 6.511 0 01-4.971 1.945c-3.458 0-6.7-2.594-6.7-8.429s3.458-8.429 6.7-8.429a8.55 8.55 0 014.971 1.729l-.865 1.081a5.084 5.084 0 00-4.106-1.51c-2.81 0-5.187 2.377-5.187 7.132s2.377 7.348 5.4 7.348a5.534 5.534 0 004.106-1.729z"/>
    </g>
  </g>
</svg>